<?xml version="1.0" encoding="utf-8"?>
<!-- Generator: Adobe Illustrator 23.0.0, SVG Export Plug-In . SVG Version: 6.00 Build 0)  -->
<svg version="1.1" id="Layer_1" xmlns="http://www.w3.org/2000/svg" xmlns:xlink="http://www.w3.org/1999/xlink" x="0px" y="0px"
	 viewBox="0 0 1000 1000" style="enable-background:new 0 0 1000 1000;" xml:space="preserve">
<style type="text/css">
	.st0{fill:#46C8F5;}
	.st1{fill:#FFFFFF;}
</style>
<g>
	<path class="st0" d="M262.99,456.27c-3.28,3.28-5.67,5.87-6.77,7.14c-19.47,22.49-34.27,57.7-24.83,67.4
		c10.04,10.32,49.3-6.36,74.54-31.6c2.6-2.6,4.5-4.62,5.47-5.71c20.56-23.08,35.91-59.08,26.13-68.83
		C327.09,414.27,286.77,432.49,262.99,456.27z"/>
	<path d="M234.14,548.34c31.22-6.24,55.55-16.19,72.13-24.3c14.02-6.86,31.37-15.36,50.57-31.36
		c30.45-25.38,40.07-48.41,50.57-45.08c8.75,2.78,9.86,21.24,10.19,26.66c1.79,29.64-19.74,50.41-21.17,51.74
		c-15.15,14.17-32.74,16.81-59.19,20.78c-4.05,0.61-14.48,2.05-47.43,2.35C266.43,549.34,247.22,548.84,234.14,548.34z"/>
	<path d="M316.26,507.54c13.97-25.53,23.7-45.6,28.22-55.93c1.68-3.84,3.17-10.31,3.23-18.82c0.05-5.81-0.82-7.03-0.88-11.47
		c-0.14-9.88,3.87-24.84,12.06-27.01c7.26-1.93,16.47,6.54,21.04,14.06c11.11,18.26,2.72,44.25-8.12,60.26
		c-10,14.77-23.3,22.41-31.25,26.1C332.47,499.01,324.37,503.28,316.26,507.54z"/>
	<path d="M224.73,549.13c-25.54-0.46-51.09-0.91-76.63-1.37c3.2-1.3,12.16-5.43,17.64-15.29c1.18-2.12,9.3-16.72,1.76-27.64
		c-6.56-9.51-21.69-11.41-30.58-6.47c-9.94,5.53-8.86,17.86-17.09,19.37c-5.41,0.99-11.97-3.22-13.49-8.2
		c-2.91-9.55,13.13-20.77,16.42-23.07c12.63-8.84,36.35-17.76,50.61-7.51c12.23,8.79,7.65,24.59,15.88,27.05
		c12.98,3.88,43.04-29.97,34.1-47.63c-4.58-9.05-19.25-13.57-29.99-13.52c-9.83,0.04-14.89,3.89-16.46,1.76
		c-2.78-3.76,8.26-22.25,25.87-27.64c15.46-4.73,29.23,2.72,32.93,4.7c11.84,6.35,17.76,15.9,19.99,19.99
		c-4.29,5.31-30.65,38.33-38.81,65.27c-3.9,12.86-2.07,20.82-1.18,24.11C217.79,540.65,221.9,546.02,224.73,549.13z"/>
	<path class="st1" d="M241.79,515.42c-0.48,1.74-2.07,7.84,0.98,11.17c4.6,5.03,17.63,1.41,23.13-6.27
		c0.56-0.78,4.58-6.41,2.35-10.58c-2.49-4.66-10.77-3.82-11.76-3.72C248.08,506.85,243.01,513.67,241.79,515.42z"/>
</g>
<g>
	<path class="st0" d="M601.3,511.83c0.41,12.39-5.52,23.99-15.68,30.18c-10.37,6.32-25.8,7.42-36.06-1.57
		c-8.09-7.09-9.19-17.16-9.41-19.99c4.34-2.1,10.95-4.49,18.82-3.92c7.74,0.56,10.88,3.56,17.25,4.31
		C581.86,521.51,590.2,520.42,601.3,511.83z"/>
	<path class="st0" d="M799.8,511.83c0.41,12.39-5.52,23.99-15.68,30.18c-10.37,6.32-25.8,7.42-36.06-1.57
		c-8.09-7.09-9.19-17.16-9.41-19.99c4.34-2.1,10.95-4.49,18.82-3.92c7.74,0.56,10.88,3.56,17.25,4.31
		C780.35,521.51,788.7,520.42,799.8,511.83z"/>
	<path class="st0" d="M899.95,511.83c0.41,12.39-5.52,23.99-15.68,30.18c-10.37,6.32-25.8,7.42-36.06-1.57
		c-8.09-7.09-9.19-17.16-9.41-19.99c4.34-2.1,10.95-4.49,18.82-3.92c7.74,0.56,10.88,3.56,17.25,4.31
		C880.51,521.51,888.85,520.42,899.95,511.83z"/>
	<g>
		<path class="st0" d="M511.97,397.55h-39.96v34.97h35.73v19.77h-35.73v99.22h-23.18V377.77h63.14V397.55z"/>
		<path d="M604.82,517.31c0,24.17-10.84,36.25-32.5,36.25c-23.79,0-35.68-12.01-35.68-36.03V406.96h19.32v102.39
			c0,10.99,0.95,18.58,2.84,22.79c1.89,4.2,6.02,6.31,12.39,6.31s10.34-2.22,11.93-6.65c1.59-4.43,2.39-12.29,2.39-23.58V406.96
			h19.32V517.31z"/>
		<path class="st0" d="M715.53,377.77l-33.41,73.06l-0.41,100.68h-23.46l0.41-99.59l-33.41-74.15h23.25l22.01,51.65l0.51-0.23
			l21.46-51.42H715.53z"/>
		<path d="M727.1,478.72c0-31.42,3.09-51.74,9.26-60.98c6.17-9.24,16.35-13.86,30.51-13.86c16.21,0,26.99,5.17,32.33,15.5
			s8.01,28.94,8.01,55.81c0,24.07-1.19,40.77-3.58,50.08c-2.39,9.31-6.52,16.16-12.39,20.55c-5.87,4.39-13.85,6.59-23.92,6.59
			c-10.38,0-18.34-2.02-23.87-6.08c-5.53-4.05-9.64-10.62-12.33-19.7C728.45,517.56,727.1,501.59,727.1,478.72z M786.77,479.86
			c0-27.48-1.62-44.45-4.84-50.92c-3.23-6.47-8.07-9.71-14.53-9.71c-7.6,0-12.8,3.88-15.61,11.64c-2.81,7.76-4.22,20.83-4.22,39.22
			v7.95c0.73,15.09,1.38,27.15,1.75,35.51c0.04,1.02,0.21,4.77,1.67,9.39c1.33,4.21,2.78,8.66,7.06,11.56
			c2.53,1.72,5.65,2.58,9.35,2.58c5.32,0,9.88-2.65,13.68-7.95c3.8-5.3,5.7-19.94,5.7-43.94V479.86z"/>
		<path d="M903.48,517.31c0,24.17-10.84,36.25-32.5,36.25c-23.79,0-35.68-12.01-35.68-36.03V406.96h19.32v102.39
			c0,10.99,0.95,18.58,2.84,22.79c1.89,4.2,6.02,6.31,12.39,6.31s10.34-2.22,11.93-6.65c1.59-4.43,2.39-12.29,2.39-23.58V406.96
			h19.32V517.31z"/>
	</g>
	<path class="st0" d="M1016.07,583.76"/>
</g>
</svg>
